<svg width="512" height="512" viewBox="0 0 512 512" fill="none" xmlns="http://www.w3.org/2000/svg">
<g clipPath="url(#clip0_832_77)">
<path d="M256 0C114.615 0 0 114.615 0 256C0 397.385 114.615 512 256 512C397.385 512 512 397.385 512 256C511.84 114.681 397.319 0.159889 256 0ZM256 494.933C124.041 494.933 17.0667 387.959 17.0667 256C17.0667 124.041 124.041 17.0667 256 17.0667C387.959 17.0667 494.933 124.041 494.933 256C494.783 387.897 387.897 494.783 256 494.933Z" fill="white"/>
<path d="M256 34.1333C133.466 34.1333 34.1333 133.466 34.1333 256C34.1333 378.534 133.466 477.867 256 477.867C378.534 477.867 477.867 378.534 477.867 256C477.726 133.525 378.475 34.2744 256 34.1333ZM256 460.8C142.892 460.8 51.2 369.108 51.2 256C51.2 142.892 142.892 51.2 256 51.2C369.108 51.2 460.8 142.892 460.8 256C460.668 369.053 369.053 460.668 256 460.8Z" fill="white"/>
<path d="M256 179.2C284.277 179.2 307.2 156.277 307.2 128C307.2 99.7231 284.277 76.8 256 76.8C227.723 76.8 204.8 99.7231 204.8 128C204.828 156.265 227.735 179.172 256 179.2ZM256 93.8667C274.851 93.8667 290.133 109.149 290.133 128C290.133 146.851 274.851 162.133 256 162.133C237.148 162.133 221.866 146.851 221.866 128C221.866 109.149 237.148 93.8667 256 93.8667Z" fill="white"/>
<path d="M374.844 187.802H374.707L285.107 195.849C282.052 196.127 278.995 196.267 275.934 196.267H236.066C233.011 196.267 229.959 196.13 226.91 195.857L137.156 187.802C123.06 186.694 110.735 197.223 109.628 211.319C108.52 225.416 119.05 237.74 133.146 238.848L205.568 245.419C209.962 245.816 213.329 249.497 213.333 253.909V273.536C213.336 277.803 212.537 282.032 210.978 286.003L169.916 390.579C164.192 403.511 170.036 418.635 182.968 424.358C195.9 430.082 211.023 424.239 216.747 411.307L255.881 315.622L295.381 411.563C301.272 424.17 316.154 429.763 328.89 424.156C341.626 418.549 347.55 403.796 342.229 390.938L301.022 285.978C299.467 282.011 298.668 277.788 298.667 273.527V253.901C298.671 249.489 302.038 245.807 306.432 245.41L378.735 238.848C392.833 237.773 403.391 225.473 402.317 211.375C401.242 197.276 388.942 186.727 374.844 187.802ZM377.31 221.867L304.888 228.437C291.679 229.574 281.551 240.652 281.6 253.909V273.536C281.597 279.941 282.798 286.289 285.141 292.25L326.494 397.542C328.504 401.805 326.678 406.89 322.415 408.9C318.152 410.91 313.067 409.084 311.057 404.821L271.642 309.137C269.027 302.803 262.852 298.672 256 298.672C249.148 298.672 242.973 302.803 240.358 309.137L201.054 404.565C199.832 407.469 197.109 409.464 193.972 409.753C190.834 410.042 187.793 408.579 186.06 405.947C184.328 403.315 184.187 399.943 185.694 397.175L226.901 292.215C229.229 286.261 230.416 279.921 230.4 273.527V253.901C230.458 240.637 220.327 229.549 207.113 228.412L134.571 221.867C129.858 221.534 126.307 217.445 126.639 212.732C126.971 208.019 131.061 204.468 135.774 204.8L225.374 212.847C228.924 213.165 232.482 213.325 236.049 213.325H275.917C279.484 213.325 283.042 213.165 286.592 212.847L376.149 204.8C378.405 204.621 380.638 205.351 382.352 206.827C384.067 208.303 385.121 210.402 385.28 212.659C385.466 214.942 384.726 217.203 383.227 218.935C381.728 220.667 379.596 221.723 377.31 221.867Z" fill="white"/>
</g>
<defs>
<clipPath id="clip0_832_77">
<rect width="512" height="512" fill="white"/>
</clipPath>
</defs>
</svg>
