<svg width="512" height="512" viewBox="0 0 512 512" fill="none" xmlns="http://www.w3.org/2000/svg">
<path d="M111.467 205.3C111.225 210.532 106.786 214.578 101.553 214.335C96.3212 214.092 92.2752 209.654 92.5182 204.421C92.7612 199.188 97.1992 195.143 102.432 195.386C107.664 195.629 111.709 200.068 111.467 205.3ZM489.995 363.109L461.533 374.143C458.935 375.15 456.26 375.627 453.628 375.627C444.83 375.627 436.512 370.298 433.146 361.616L430.663 355.212L407.499 364.877C408.616 371.439 407.542 378.26 404.284 384.185C400.419 391.213 394.017 396.307 386.259 398.527C385.94 398.619 385.619 398.705 385.298 398.786C387.832 406.421 387.325 415.019 383.188 422.54C377.083 433.642 364.907 439.334 353.039 437.76C353.394 443.224 352.26 448.831 349.449 453.941C345.595 460.949 339.217 466.033 331.492 468.256C326.663 469.646 321.689 469.805 316.94 468.773C317.094 473.923 315.925 479.166 313.28 483.976C309.425 490.985 302.774 496.249 295.036 498.418C292.363 499.168 289.653 499.538 286.969 499.538C281.943 499.538 277.004 498.238 272.562 495.686L264.716 491.18C260.825 496.657 255.256 500.683 248.691 502.672C245.747 503.564 242.74 504.006 239.753 504.006C234.805 504.006 229.91 502.792 225.438 500.4C218.802 496.851 213.905 491.124 211.339 484.44C203.052 487.964 193.332 487.802 184.937 483.313C178.992 480.133 174.419 475.144 171.688 469.278C162.954 474.007 152.102 474.414 142.733 469.403C131.017 463.136 125.047 450.271 126.951 437.828C121.798 437.946 116.619 436.774 111.897 434.248C104.726 430.413 99.4712 423.992 97.1002 416.168C94.7292 408.344 95.5362 400.086 99.3712 392.915L107.031 378.593C105.319 374.522 104.475 370.073 103.666 365.724C102.199 357.835 101.057 352.948 97.5692 351.594C96.1962 351.062 92.9402 349.707 81.0032 344.386L77.9262 351.348C75.5632 356.694 71.2462 360.806 65.7712 362.925C63.1902 363.924 60.5002 364.422 57.8192 364.422C54.8122 364.422 51.8152 363.796 48.9892 362.547L21.0692 350.207C10.0052 345.315 4.98124 332.334 9.87124 321.27L73.9702 176.234C76.3332 170.888 80.6512 166.777 86.1262 164.658C91.6042 162.539 97.5642 162.674 102.908 165.037L130.827 177.377C136.173 179.74 140.285 184.057 142.403 189.532C144.522 195.008 144.387 200.968 142.025 206.314L137.217 217.192L155.39 225.576C155.584 225.666 155.775 225.763 155.961 225.868C161.322 228.885 166.815 229.566 172.793 229.083C153.396 206.098 142.858 177.145 142.858 146.071V61.054C142.858 57.854 144.765 54.962 147.707 53.701L252.848 8.64101C254.86 7.77901 257.139 7.77901 259.151 8.64101L364.293 53.701C367.234 54.961 369.142 57.854 369.142 61.054V146.071C369.142 177.971 358.022 207.669 337.606 230.943C349.028 235.314 356.96 237.343 364.345 233.501L380.191 225.019L375.83 213.768C371.457 202.489 377.076 189.754 388.356 185.381L416.817 174.347C428.092 169.975 440.832 175.593 445.205 186.873L502.521 334.721C506.894 346.001 501.274 358.735 489.995 363.109ZM158.859 146.07C158.859 176.468 170.334 204.526 191.251 225.558C195.824 224.492 200.668 223.41 205.775 222.672C183.884 203.869 170.859 176.672 170.859 146.07V79.517C170.859 76.317 172.766 73.424 175.708 72.164L252.849 39.104C254.861 38.242 257.14 38.242 259.152 39.104L336.294 72.164C339.235 73.425 341.143 76.317 341.143 79.517V146.07C341.143 175.275 329.133 201.967 308.195 220.921C312.874 221.924 317.319 223.278 321.538 224.76C341.952 203.82 353.143 176.069 353.143 146.071V66.329L256 24.698L158.859 66.329V146.07ZM282.483 219.964C309.606 204.248 325.141 177.389 325.141 146.07V84.793L256 55.161L186.859 84.792V146.07C186.859 186.535 214.062 219.975 254.854 230.152C264.707 224.383 273.903 221.273 282.483 219.964ZM127.391 199.845C128.027 198.407 128.059 196.795 127.483 195.305C126.906 193.815 125.797 192.645 124.36 192.01L96.4402 179.67C93.4492 178.35 89.9292 179.705 88.6052 182.702L24.5022 327.736C23.1782 330.732 24.5382 334.247 27.5342 335.571L55.4542 347.91C56.8922 348.546 58.5042 348.578 59.9932 348.001C61.4822 347.424 62.6532 346.315 63.2882 344.878L127.391 199.845ZM135.233 418.774L153.518 387.127C156.525 380.208 153.728 372.076 147.058 368.516C139.98 364.739 131.152 367.412 127.373 374.476L113.477 400.46C111.657 403.862 111.278 407.793 112.409 411.526C113.541 415.259 116.038 418.318 119.44 420.137C124.509 422.849 130.716 422.275 135.233 418.774ZM170.001 449.244L190.2 410.126C191.419 403.924 188.412 397.426 182.828 394.446C177.713 391.715 171.462 392.315 166.941 395.878L144.313 435.616C140.533 442.685 143.208 451.512 150.278 455.294C157.339 459.069 166.185 456.356 170.001 449.244ZM210.887 465.191L228.801 430.76C230.015 424.561 227.008 418.069 221.428 415.091C215.865 412.121 208.837 413.191 204.362 417.573L184.848 455.364C184.466 461.046 187.431 466.502 192.481 469.203C198.761 472.562 206.589 470.822 210.887 465.191ZM252.66 480.328L265.986 455.41C268.609 450.505 268.154 444.41 264.826 439.884C263.554 438.153 261.938 436.757 260.023 435.733C254.461 432.761 247.427 433.836 242.951 438.228L225.388 471.985C224.797 477.844 227.753 483.495 232.983 486.291C236.384 488.11 240.314 488.489 244.049 487.358C247.782 486.227 250.841 483.731 252.66 480.328ZM293.758 457.328C293.327 457.086 283.524 451.385 283.524 451.385C283.164 455.379 282.039 459.321 280.096 462.955L272.483 477.191L280.529 481.812C283.589 483.57 287.208 483.995 290.717 483.012C294.347 481.994 297.461 479.535 299.26 476.265C302.934 469.583 300.466 461.089 293.758 457.328ZM390.521 363.779C389.25 361.159 387.231 359.007 384.683 357.554L308.985 314.408C296.131 307.08 280.072 313.582 261.48 321.109C247.58 326.736 231.955 333.059 216.123 333.061C200.654 333.062 184.989 327.028 170.521 308.413C168.643 306.002 167.895 302.892 168.474 299.889C169.053 296.885 170.904 294.275 173.552 292.729C194.899 280.271 212.928 266.671 227.139 252.31C230.93 248.479 234.639 245.059 238.268 242.001C221.902 234.821 207.904 238.09 193.226 241.528C178.719 244.927 163.722 248.441 148.41 239.975L130.747 231.827L87.4672 329.75C98.1822 334.525 102.066 336.177 103.356 336.677C114.021 340.817 117.051 351.004 118.774 359.565C128.045 350.459 142.532 347.963 154.591 354.4C163.524 359.167 169.162 367.833 170.446 377.251C177.101 376.028 184.13 377.004 190.361 380.331C197.849 384.327 203.093 391.073 205.314 398.799C212.962 396.366 221.474 396.981 228.96 400.975C236.448 404.971 241.692 411.716 243.913 419.441C251.564 417.006 260.08 417.621 267.564 421.621C271.138 423.532 274.22 426.067 276.752 429.167L316.599 451.722C319.786 453.493 323.501 453.904 327.063 452.879C330.668 451.841 333.638 449.48 335.426 446.229C339.08 439.585 336.594 431.108 329.883 427.331C329.445 427.085 273.962 395.704 273.962 395.704C270.111 393.537 268.746 388.659 270.913 384.808C273.08 380.958 277.957 379.593 281.808 381.759L350.31 420.305C357.016 423.99 365.477 421.534 369.165 414.828C372.82 408.184 370.333 399.706 363.622 395.929C363.62 395.928 363.618 395.926 363.615 395.925C347.541 386.922 329.325 376.719 311.472 366.499C307.638 364.304 306.309 359.416 308.503 355.582C310.697 351.748 315.583 350.417 319.421 352.614C337.218 362.802 355.407 372.99 371.455 381.979C374.611 383.746 378.303 384.161 381.853 383.145C385.48 382.107 388.465 379.738 390.26 376.475C392.432 372.532 392.525 367.905 390.521 363.779ZM424.877 340.289L386.017 240.048L371.811 247.652C356.394 255.673 341.304 249.666 326.711 243.859C302.481 234.214 277.424 224.243 238.512 263.566C224.567 277.659 207.297 290.998 187.117 303.273C207.837 325.568 230.023 316.584 255.475 306.28C276.043 297.952 297.314 289.342 316.907 300.509L392.606 343.655C395.713 345.426 398.449 347.696 400.722 350.368L424.877 340.289ZM487.603 340.504L430.287 192.656C429.376 190.305 427.123 188.863 424.741 188.863C424.028 188.863 423.303 188.992 422.599 189.265L394.139 200.298C391.085 201.482 389.564 204.93 390.747 207.984L448.063 355.833C449.247 358.887 452.697 360.409 455.75 359.225L484.212 348.191C487.266 347.006 488.786 343.558 487.603 340.504ZM415.886 204.688C410.662 204.688 406.401 208.948 406.401 214.173C406.401 219.397 410.662 223.658 415.886 223.658C421.11 223.658 425.371 219.397 425.371 214.173C425.371 208.948 421.11 204.688 415.886 204.688ZM259.396 182.147C255.46 186.083 250.227 188.25 244.66 188.25C239.094 188.25 233.86 186.083 229.925 182.147L201.475 153.697C193.351 145.572 193.35 132.351 201.475 124.226C205.411 120.29 210.644 118.123 216.211 118.123C221.778 118.123 227.012 120.29 230.947 124.226L244.603 137.883L281.04 101.084C284.951 97.134 290.169 94.948 295.731 94.927H295.812C301.353 94.927 306.564 97.076 310.495 100.985C318.618 109.063 318.662 122.261 310.592 130.406C304.252 136.804 297.928 143.219 291.604 149.634C281.076 160.311 270.189 171.353 259.396 182.147ZM248.082 170.833C258.836 160.079 269.702 149.058 280.21 138.4C286.544 131.976 292.877 125.552 299.227 119.144C301.098 117.255 301.092 114.199 299.213 112.33C298.297 111.42 297.08 110.96 295.792 110.927C294.51 110.932 293.309 111.435 292.409 112.343L250.316 154.855C248.819 156.367 246.78 157.221 244.651 157.226C244.645 157.226 244.638 157.226 244.631 157.226C242.509 157.226 240.475 156.383 238.974 154.883L219.632 135.541C218.719 134.627 217.503 134.124 216.21 134.124C214.917 134.124 213.701 134.627 212.788 135.541C210.901 137.428 210.9 140.499 212.788 142.385L241.237 170.834C242.15 171.748 243.366 172.251 244.659 172.251C245.954 172.25 247.169 171.747 248.082 170.833Z" fill="white"/>
</svg>
